<?xml version="1.0" standalone="no"?>
<!DOCTYPE svg PUBLIC "-//W3C//DTD SVG 20010904//EN"
 "http://www.w3.org/TR/2001/REC-SVG-20010904/DTD/svg10.dtd">
<svg version="1.0" xmlns="http://www.w3.org/2000/svg"
 width="64.000000pt" height="64.000000pt" viewBox="0 0 64.000000 64.000000"
 preserveAspectRatio="xMidYMid meet">

<g transform="translate(0.000000,64.000000) scale(0.100000,-0.100000)"
fill="#000000" stroke="none">
<path d="M170 560 c0 -43 -3 -50 -20 -50 -13 0 -20 -7 -20 -20 0 -17 -7 -20
-50 -20 -27 0 -50 -4 -50 -10 0 -5 23 -10 50 -10 l50 0 0 -60 0 -60 -50 0
c-27 0 -50 -4 -50 -10 0 -5 23 -10 50 -10 l50 0 0 -60 0 -60 -50 0 c-27 0 -50
-4 -50 -10 0 -5 23 -10 50 -10 43 0 50 -3 50 -20 0 -13 7 -20 20 -20 17 0 20
-7 20 -50 0 -27 5 -50 10 -50 6 0 10 23 10 50 l0 50 60 0 60 0 0 -50 c0 -27 5
-50 10 -50 6 0 10 23 10 50 l0 50 60 0 60 0 0 -50 c0 -27 5 -50 10 -50 6 0 10
23 10 50 0 43 3 50 20 50 13 0 20 7 20 20 0 17 7 20 50 20 28 0 50 5 50 10 0
6 -22 10 -50 10 l-50 0 0 60 0 60 50 0 c28 0 50 5 50 10 0 6 -22 10 -50 10
l-50 0 0 60 0 60 50 0 c28 0 50 5 50 10 0 6 -22 10 -50 10 -43 0 -50 3 -50 20
0 13 -7 20 -20 20 -17 0 -20 7 -20 50 0 28 -4 50 -10 50 -5 0 -10 -22 -10 -50
l0 -50 -60 0 -60 0 0 50 c0 28 -4 50 -10 50 -5 0 -10 -22 -10 -50 l0 -50 -60
0 -60 0 0 50 c0 28 -4 50 -10 50 -5 0 -10 -22 -10 -50z m26 -91 c10 -17 -13
-36 -27 -22 -12 12 -4 33 11 33 5 0 12 -5 16 -11z m280 0 c10 -17 -13 -36 -27
-22 -12 12 -4 33 11 33 5 0 12 -5 16 -11z m-106 -54 c32 -17 60 -61 60 -95 0
-53 -57 -110 -110 -110 -34 0 -78 28 -95 60 -19 37 -19 63 0 100 28 54 90 73
145 45z m-174 -226 c10 -17 -13 -36 -27 -22 -12 12 -4 33 11 33 5 0 12 -5 16
-11z m280 0 c10 -17 -13 -36 -27 -22 -12 12 -4 33 11 33 5 0 12 -5 16 -11z"/>
<path d="M290 370 c0 -5 14 -10 30 -10 17 0 30 5 30 10 0 6 -13 10 -30 10 -16
0 -30 -4 -30 -10z"/>
<path d="M260 320 c0 -6 27 -10 60 -10 33 0 60 4 60 10 0 6 -27 10 -60 10 -33
0 -60 -4 -60 -10z"/>
<path d="M260 270 c0 -6 27 -10 60 -10 33 0 60 4 60 10 0 6 -27 10 -60 10 -33
0 -60 -4 -60 -10z"/>
</g>
</svg>
